PathFileType	4	(X/Y/Z)	C:/Users/beibeiliu/ov580/test_trc/User2\sequence.28_training_dense_left.trc
DataRate	CameraRate	NumFrames	NumMarkers	Units	OrigDataRate	OrigDataStartFrame	OrigNumFrames
120	120	21	19	mm	120	1	256
Frame#	Time	ThumbCMC			ThumbMCP			ThumbIP			ThumbTip			IndexMCP			IndexPIP			IndexTip			MiddleMCP			MiddlePIP			MiddleTip			RingMCP			RingPIP			RingTip			PinkyMCP			PinkyPIP			PinkyTip			BackHand1			BackHand2			BackHand3	
		X0	Y0	Z0	X1	Y1	Z1	X2	Y2	Z2	X3	Y3	Z3	X4	Y4	Z4	X5	Y5	Z5	X6	Y6	Z6	X7	Y7	Z7	X8	Y8	Z8	X9	Y9	Z9	X10	Y10	Z10	X11	Y11	Z11	X12	Y12	Z12	X13	Y13	Z13	X14	Y14	Z14	X15	Y15	Z15	X16	Y16	Z16	X17	Y17	Z17	X18	Y18	Z18	
0	0	-124.589	-48.9296	111.512	-106.317	-63.0003	83.4554	-93.2364	-70.8829	49.6853	-98.5635	-74.6435	18.7276	-119.961	-13.897	36.4582	-106.611	-29.5648	11.6422	-107.663	-64.9202	-2.15081	-148.031	4.69771	32.6257	-140.208	15.8434	1.53803	-132.892	18.2763	-31.1353	-175.366	-1.6109	30.9774	-176.031	8.64353	7.81157	-172.675	14.1581	-22.4811	-201.565	-22.8945	37.1665	-205.823	-14.4529	15.8096	-207.154	-0.702589	-7.46078	-185.248	-18.0758	79.1014	-194.876	-25.496	114.929	-156.622	-15.6277	104.495	
1	0.00833333	-126.863	-48.5628	109.139	-106.423	-61.2312	82.3779	-99.2508	-68.1774	49.9906	-98.6184	-73.6158	19.9138	-120.581	-13.3908	35.1403	-108.475	-31.2774	8.3383	-110.214	-64.4691	-2.83029	-146.557	6.23308	30.7899	-139.32	15.104	4.3524	-131.682	18.1006	-30.7964	-180.433	-2.21324	32.336	-175.176	9.18298	7.72929	-171.399	17.0503	-26.6039	-199.367	-24.4686	40.711	-207.954	-10.0563	12.7648	-211.394	1.19539	-4.29761	-188.852	-20.6217	81.6976	-194.516	-23.9335	112.959	-156.326	-15.8408	103.25	
2	0.0166667	-127.8	-49.1849	110.567	-109.17	-61.0204	84.2491	-96.8681	-66.9312	45.9009	-98.185	-72.5506	24.0687	-114.942	-14.3024	34.5878	-109.291	-29.1001	10.8362	-106.052	-59.8927	-0.551705	-149.754	6.17866	33.2491	-138.869	15.8364	3.43647	-128.851	19.1014	-27.5461	-175.584	-1.35857	35.3994	-174.666	11.9279	3.99423	-171.749	17.6729	-25.3432	-201.385	-21.6477	40.9371	-208.48	-9.91844	15.3547	-210.451	1.85611	-4.79513	-189.723	-19.0012	81.6872	-193.894	-25.0126	112.737	-158.782	-16.5516	105.908	
3	0.025	-123.862	-46.9326	106.168	-110.377	-59.2105	80.0578	-98.2338	-65.4887	46.9221	-95.8054	-71.4969	23.6893	-117.63	-13.1662	34.0864	-104.993	-31.4377	10.0291	-110.878	-57.027	-2.08683	-147.726	6.43305	35.0517	-138.278	17.1286	1.30573	-130.916	19.4805	-29.298	-174.79	1.38633	33.2297	-175.221	12.3469	4.83605	-169.584	17.7069	-20.4372	-196.535	-21.5688	41.2321	-204.237	-7.55849	16.2151	-211.266	4.2924	-3.3883	-187.038	-18.117	79.2419	-197.196	-24.5819	110.8	-156.661	-14.4517	103.919	
4	0.0333333	-129.57	-47.5065	108.335	-110.29	-57.8182	77.3464	-97.0433	-65.42	46.6245	-95.3888	-70.2679	20.0143	-117.97	-10.9579	37.8111	-108.439	-26.2138	12.426	-107.071	-56.1809	-1.41554	-146.327	10.1968	30.632	-137.404	16.7428	-0.878399	-131.841	19.3329	-27.8834	-180.936	-1.40554	30.9201	-175.526	11.0696	1.73492	-171.999	13.6981	-27.8015	-203.56	-21.9123	37.9926	-204.107	-10.5469	15.1882	-212.451	1.23826	-6.35093	-189.822	-16.9194	80.2052	-192.896	-23.1107	111.309	-158.76	-14.8493	103.304	
5	0.0416667	-129.643	-44.2543	103.348	-112.711	-55.8636	76.4869	-102.137	-61.5341	41.513	-98.3949	-68.355	16.6825	-121.004	-9.25197	37.5962	-113.866	-27.061	7.61773	-109.443	-53.606	-3.24827	-153.855	7.40237	27.1821	-143.372	14.473	-1.34131	-139.16	15.3587	-32.8905	-184.038	-4.08863	27.5454	-180.795	4.15152	-3.09105	-175.907	4.41101	-29.5363	-203.409	-23.1264	36.6395	-205.564	-15.9262	13.3122	-212.233	-8.47666	-12.215	-189.529	-18.4545	83.3842	-197.101	-25.5348	111.726	-158.043	-14.0975	104.374	
6	0.05	-128.451	-42.2432	102.096	-112.171	-54.6083	72.7653	-105.932	-62.8958	42.5425	-104.552	-67.1875	15.7917	-127.413	-7.92288	29.054	-115.096	-20.755	8.66075	-112.968	-48.196	-8.56795	-159.032	5.6764	23.194	-149.297	11.0301	-2.85856	-143.36	12.834	-37.6629	-181.718	-7.89381	26.09	-180.966	-4.6576	-5.17366	-171.62	-6.0213	-37.2162	-206.292	-28.0976	31.8468	-206.382	-22.9581	2.10927	-207.137	-19.9314	-21.0352	-190.462	-20.9762	81.8644	-200.438	-27.1568	111.835	-164.083	-12.9025	103.577	
7	0.0583333	-130.34	-41.9738	104.433	-114.852	-55.0642	72.7415	-106.498	-60.9653	35.2479	-106.519	-68.0296	11.1907	-131.109	-3.63208	28.5548	-117.325	-16.9961	2.18509	-114.823	-38.2707	-15.6193	-162.174	4.64835	21.2036	-156.03	8.72716	-7.28783	-146.467	9.78328	-42.8427	-182.827	-11.8323	20.5876	-182.696	-14.9979	-10.4604	-172.763	-21.0785	-37.367	-204.817	-31.6826	24.5033	-199.67	-33.9531	0.383793	-194.241	-37.4374	-29.0349	-198.186	-22.3125	79.1663	-201.741	-27.1405	108.798	-163.784	-10.4165	101.714	
8	0.0666667	-132.152	-41.3067	99.4308	-119.014	-54.6062	67.5682	-114.528	-62.2286	35.025	-115.83	-68.0452	6.46828	-136.185	-1.26806	29.4553	-122.953	-10.3281	-1.41358	-111.54	-30.0894	-22.6051	-166.927	2.80354	22.7069	-163.7	6.42813	-13.6973	-156.405	5.72148	-43.5258	-185.81	-17.0246	15.7216	-182.041	-23.1695	-12.402	-166.684	-33.7916	-39.4869	-203.644	-39.7346	25.0632	-193.237	-46.6457	-0.180981	-183.684	-56.8999	-25.7559	-197.47	-22.696	76.755	-203.867	-30.1665	110.412	-167.117	-13.3236	100.026	
9	0.075	-135.08	-41.3167	99.5779	-117.233	-55.9613	65.4852	-112.429	-64.6785	33.4891	-120.626	-72.1283	8.89767	-138.064	-0.416445	27.2624	-130.903	-5.17268	0.717361	-120.117	-18.7519	-25.9696	-168.392	2.71151	19.09	-164.424	5.83193	-12.4856	-160.882	2.99196	-43.7372	-183.433	-19.8922	13.1161	-183.019	-30.3408	-12.5209	-166.936	-45.3075	-36.9051	-198.32	-43.2334	25.4147	-187.329	-59.5727	-0.915388	-172.291	-73.7826	-16.5068	-201.548	-23.7172	75.9408	-204.215	-28.1579	106.321	-167.648	-12.3779	99.9014	
10	0.0833333	-133.634	-39.9429	96.8964	-120.515	-56.2297	65.2849	-117.854	-65.8609	30.5694	-122.709	-73.01	4.11012	-142.297	-1.14797	24.9354	-131.335	-3.43823	-0.208697	-124.373	-13.9499	-29.8164	-171.335	0.957075	16.0143	-167.873	2.30407	-12.7605	-168.192	-0.951315	-45.1347	-189.586	-27.1593	13.2191	-181.928	-37.0331	-12.7055	-164.601	-54.6718	-36.0538	-198.67	-46.3034	24.6281	-185.085	-65.5047	1.21631	-166.56	-84.7	-5.75977	-202.053	-23.9647	75.8455	-203.487	-28.824	105.035	-170.349	-11.7855	98.059	
11	0.0916667	-137.027	-42.5202	98.9362	-118.539	-57.6577	65.3066	-117.7	-66.6438	30.2863	-127.335	-73.4474	6.79246	-141.952	0.167449	24.9484	-132.98	-1.67083	-2.45778	-128.432	-7.91979	-26.8981	-172.112	-1.34334	17.9825	-171.392	-0.491315	-15.6089	-168.886	-2.49961	-48.9471	-188.597	-28.2447	14.956	-178.281	-40.17	-10.9927	-165.525	-61.7739	-30.1368	-198.307	-48.8088	19.8544	-184.817	-68.5695	5.38769	-161.717	-92.404	7.94869	-202.356	-21.4595	74.274	-206.269	-28.7712	106.875	-166.665	-12.1231	96.4803	
12	0.1	-137.827	-39.9094	95.3597	-125.334	-57.223	65.3158	-119.275	-67.4437	29.7665	-126.416	-73.3578	4.37531	-142.015	1.95122	24.7367	-133.169	2.02334	-0.426017	-129.827	-2.09325	-25.2117	-170.413	-1.01176	15.9331	-170.693	-2.47234	-17.2656	-170.449	-5.65391	-45.4637	-189.04	-29.9338	13.1055	-173.631	-45.5225	-11.6968	-158.983	-70.85	-22.6587	-202.4	-52.5045	24.4374	-182.749	-73.8968	10.761	-154.523	-88.7679	25.8591	-197.618	-20.8731	73.2956	-203.775	-28.588	109.498	-168.88	-13.2186	98.5456	
13	0.108333	-136.307	-41.1256	99.386	-121.468	-55.8256	63.8218	-120.452	-64.6472	28.6033	-128.957	-72.3236	3.89403	-148.283	2.10037	28.4569	-139.387	5.3337	3.02055	-133.069	4.10057	-28.2385	-172.47	-2.04867	13.9144	-168.474	-4.35597	-16.906	-166.329	-9.34973	-45.0965	-184.902	-31.9432	11.8037	-173.562	-50.4987	-6.55127	-153.039	-77.7426	-8.11008	-196.301	-54.8727	21.7437	-172.603	-79.3839	20.3375	-152.02	-81.1857	42.7705	-199.325	-21.7728	73.1084	-204.877	-26.4613	107.713	-170.926	-11.0467	101.294	
14	0.116667	-135.06	-38.0147	99.2581	-121.14	-54.72	67.7396	-118.631	-64.7065	31.5531	-128.256	-71.4504	7.08911	-149.736	4.55983	26.306	-142.955	7.90049	1.96873	-136.535	9.23841	-26.5936	-170.61	-3.82094	16.6176	-165.43	-7.52842	-15.8766	-162.119	-17.6554	-50.4405	-182.906	-35.269	13.1716	-167.893	-59.0773	-2.34604	-147.818	-81.943	8.52679	-195.729	-61.2443	23.928	-170.797	-79.8058	26.257	-152.046	-75.3267	58.1476	-204.478	-23.0874	74.8338	-203.869	-28.5499	106.527	-172.66	-10.6798	98.1168	
15	0.125	-135.61	-37.1496	99.0267	-122.559	-53.016	65.992	-118.74	-62.431	28.8137	-123.174	-73.0529	8.60916	-149.68	5.76668	28.3903	-142.304	11.1315	2.53583	-142.493	13.7081	-28.841	-172.214	-7.89536	15.7534	-160.547	-13.8645	-19.1266	-155.422	-25.9948	-46.0789	-182.136	-39.7412	15.1671	-163.087	-63.7314	5.13948	-146.138	-85.9257	26.8003	-193.418	-63.7262	26.7753	-165.263	-78.3156	34.1293	-154.273	-67.5507	64.4998	-201.683	-23.0972	71.7302	-205.115	-28.4833	107.002	-171.958	-7.25251	96.0105	
16	0.133333	-135.384	-34.9135	100.983	-120.476	-50.5356	64.2886	-117.394	-61.5638	33.2575	-121.872	-69.9915	6.48314	-153.015	4.86818	29.7783	-148.553	9.48285	-0.735016	-146.726	14.7969	-25.5261	-172.205	-12.9432	15.9768	-161.441	-22.7885	-17.469	-150.56	-38.6505	-42.8507	-176.222	-43.3284	16.3743	-159.252	-71.652	11.7536	-143.551	-86.2922	43.1009	-188.783	-65.2364	28.3122	-163.482	-79.2348	38.859	-157.81	-66.3388	67.8291	-203.73	-25.1829	75.1717	-205.619	-27.18	105.507	-174.992	-8.00673	94.6893	
17	0.141667	-134.628	-32.0844	99.623	-120.564	-49.7149	70.3401	-115.076	-60.7283	36.216	-116.211	-70.0779	9.6503	-152.583	5.99052	30.1776	-151.715	8.92108	-0.754469	-150.468	14.1665	-24.8816	-168.726	-16.0734	11.3765	-155.898	-28.4202	-14.6749	-142.632	-53.213	-40.0493	-177.14	-47.9522	16.5324	-157.994	-72.6213	14.8579	-140.716	-79.8322	48.4843	-188.916	-63.3543	29.2806	-160.868	-80.6065	41.8998	-157.541	-67.7043	67.7739	-202.597	-24.2244	72.5622	-208.003	-29.538	104.49	-177.535	-9.38778	95.7963	
18	0.15	-134.87	-28.8244	98.8261	-121.265	-46.2425	71.7843	-112.68	-57.5389	33.5279	-117.006	-67.2263	12.6891	-156.172	4.20869	29.8255	-153.87	9.4831	1.27406	-156.725	12.1366	-26.0576	-168.39	-17.7657	14.3793	-153.83	-37.992	-15.4918	-139.839	-58.9734	-30.5414	-177.061	-47.7954	18.5718	-154.963	-75.2453	17.8638	-139.228	-81.3706	52.6929	-189.597	-65.1165	29.0563	-158.781	-79.0175	36.9264	-152.863	-68.2911	63.3061	-202.286	-26.2934	74.6019	-209.351	-30.4633	107.803	-178.446	-11.598	96.2446	
19	0.158333	-137.799	-26.6666	100.633	-116.763	-41.1082	71.8772	-110.06	-52.8111	38.9265	-108.444	-63.8073	14.666	-161.684	3.87923	24.5228	-157.79	6.75575	2.65113	-159.043	9.02576	-27.0729	-167.319	-22.2361	11.7581	-147.865	-38.2278	-10.1565	-131.867	-64.6806	-23.2706	-175.336	-51.9399	16.4043	-153.09	-70.6037	15.0504	-133.359	-81.1803	47.1312	-193.067	-66.3748	28.833	-162.562	-83.0792	26.2904	-147.808	-76.7263	55.0468	-204.624	-27.1743	72.6082	-206.67	-33.8305	109.76	-176.766	-7.30754	98.0828	
20	0.166667	-140.699	-21.1011	103.626	-116.729	-32.8172	71.8114	-104.996	-44.1054	39.8485	-100.183	-56.5354	17.0941	-164.75	0.930931	27.256	-162.373	2.20566	-3.39144	-162.312	4.15198	-31.211	-169.211	-27.4895	14.9271	-145.288	-40.737	-7.37112	-122.254	-67.2635	-18.0721	-176.689	-51.7856	18.2519	-148.769	-72.6344	10.0571	-125.276	-80.2034	32.3614	-192.456	-68.3219	29.2348	-165.458	-83.7159	16.6853	-139.426	-82.4971	34.5773	-203.402	-34.3306	74.1059	-206.9	-35.6283	106.098	-183.764	-9.17822	92.5176	
